<svg width="56" height="56" viewBox="0 0 56 56" fill="none" xmlns="http://www.w3.org/2000/svg">
<path d="M17.8 38.4L18 38.2L19.8 36.2L19.9 36.1L20.9 35L21 35.1C19 33.3 17.9 30.6 17.9 27.7C17.9 22 22.5 17.4 28.2 17.4C30.1 17.4 31.8 17.9 33.3 18.8L35.4 15.1L35.5 14.9L37.6 11.1L37.7 10.9L39.8 7.1L39.9 6.9L41 4.9L41.8 3.5C37.9 1.3 33.4 0 28.6 0H27.8C12.5 0 0.1 12.3 0 27.6V27.9C0 35.9 3.4 43.1 8.8 48.1L10.2 46.6L11.6 45.1L11.8 44.9L14.7 41.7L14.9 41.5L17.8 38.4Z" fill="black"/>
<path d="M47.3 7.79999L44.6 10.7L44.4 10.9L41.5 14.1L41.3 14.3L38.4 17.5L38.2 17.7L37.1 18.9L35.3 20.8C37 22.6 38.1 25.2 38.1 27.9C38.1 33.6 33.5 38.2 27.8 38.2C26.1 38.2 24.5 37.8 23 37L20.9 40.7L18 45.9L16.5 48.6L16.4 48.8L14.4 52.3C18.4 54.5 22.9 55.7 27.8 55.7C43.2 55.7 55.6 43.2 55.6 27.9C55.8 19.9 52.5 12.9 47.3 7.79999Z" fill="black"/>
<path d="M22 29.0709C22.8333 30.5982 25.0078 32.948 27.938 32.948C29.8023 32.948 30.3178 31.9689 31.3992 31.9689C32.3023 31.9689 32.6589 32.6521 32.7985 32.9175C32.8333 33.0045 32.9031 33.0568 32.9457 32.8958C32.9729 32.7783 33 32.6216 33 32.4345C33 31.8993 32.8527 30.8767 32.0581 29.7628C32.2326 29.2145 32.2519 28.6097 32.2519 28.2485C32.2519 26.6342 31.438 23.8145 28.7519 22C29.3101 22.8833 30.062 24.2366 30.062 26.1077C30.062 26.7865 29.8953 27.5349 29.7597 27.9048C28.3023 26.9562 25.5039 24.341 24.3837 23.0052C25.283 24.5542 26.345 25.951 27.5233 27.4218C25.938 26.2948 24.4612 25.0372 23.0853 23.6535C24.4031 25.8031 26.0698 27.9178 28.2752 29.9151C27.6434 30.3111 27 30.62 25.8915 30.62C24.5426 30.62 22.8953 29.889 22 29.0709Z" fill="black"/>
</svg>
